<?xml version="1.0" encoding="UTF-8"?>
<svg xmlns="http://www.w3.org/2000/svg" xmlns:xlink="http://www.w3.org/1999/xlink" viewBox="0 0 96 96" width="96px" height="96px">
<g id="surface10090725">
<path style=" stroke:none;fill-rule:nonzero;fill:rgb(80.000001%,80.000001%,80.000001%);fill-opacity:1;" d="M 42.390625 24.550781 L 28.785156 17.683594 L 13.84375 25.136719 L 27.824219 32.15625 Z M 42.390625 24.550781 "/>
<path style=" stroke:none;fill-rule:nonzero;fill:rgb(80.000001%,80.000001%,80.000001%);fill-opacity:1;" d="M 48.632812 27.699219 L 62.902344 34.90625 L 48.097656 42.339844 L 34.097656 35.308594 Z M 48.632812 27.699219 "/>
<path style=" stroke:none;fill-rule:nonzero;fill:rgb(80.000001%,80.000001%,80.000001%);fill-opacity:1;" d="M 67.691406 17.785156 L 82.351562 25.136719 L 69.238281 31.71875 L 54.941406 24.507812 Z M 67.691406 17.785156 "/>
<path style=" stroke:none;fill-rule:nonzero;fill:rgb(80.000001%,80.000001%,80.000001%);fill-opacity:1;" d="M 61.378906 14.621094 L 48.183594 8 L 35.128906 14.515625 L 48.726562 21.375 Z M 61.378906 14.621094 "/>
<path style=" stroke:none;fill-rule:nonzero;fill:rgb(80.000001%,80.000001%,80.000001%);fill-opacity:1;" d="M 51.0625 71.449219 L 51.0625 89.460938 L 67.050781 81.480469 L 67.035156 63.464844 Z M 51.0625 71.449219 "/>
<path style=" stroke:none;fill-rule:nonzero;fill:rgb(80.000001%,80.000001%,80.000001%);fill-opacity:1;" d="M 67.027344 57.175781 L 67.011719 39.347656 L 51.0625 47.273438 L 51.0625 65.109375 Z M 67.027344 57.175781 "/>
<path style=" stroke:none;fill-rule:nonzero;fill:rgb(80.000001%,80.000001%,80.000001%);fill-opacity:1;" d="M 86.222656 53.835938 L 86.222656 71.914062 L 72.585938 78.71875 L 72.574219 60.722656 Z M 86.222656 53.835938 "/>
<path style=" stroke:none;fill-rule:nonzero;fill:rgb(80.000001%,80.000001%,80.000001%);fill-opacity:1;" d="M 86.222656 47.511719 L 86.222656 29.796875 L 72.558594 36.589844 L 72.570312 54.449219 Z M 86.222656 47.511719 "/>
<path style=" stroke:none;fill-rule:nonzero;fill:rgb(0%,0%,0%);fill-opacity:1;" d="M 45.421875 47.273438 L 34.652344 41.859375 L 34.652344 65.257812 C 34.652344 65.257812 21.480469 37.230469 20.261719 34.714844 C 20.105469 34.390625 19.460938 34.035156 19.292969 33.945312 C 16.921875 32.707031 10 29.203125 10 29.203125 L 10 70.554688 L 19.574219 75.6875 L 19.574219 54.0625 C 19.574219 54.0625 32.605469 79.101562 32.738281 79.375 C 32.871094 79.648438 34.175781 82.285156 35.574219 83.214844 C 37.433594 84.449219 45.410156 89.246094 45.410156 89.246094 Z M 45.421875 47.273438 "/>
</g>
</svg>
